<?xml version="1.0" encoding="UTF-8" standalone="no"?>
<!DOCTYPE svg PUBLIC "-//W3C//DTD SVG 1.1//EN" "http://www.w3.org/Graphics/SVG/1.1/DTD/svg11.dtd">
<svg width="100%" height="100%" viewBox="0 0 2835 2835" version="1.1" xmlns="http://www.w3.org/2000/svg" xmlns:xlink="http://www.w3.org/1999/xlink" xml:space="preserve" xmlns:serif="http://www.serif.com/" style="fill-rule:evenodd;clip-rule:evenodd;stroke-linejoin:round;stroke-miterlimit:2;">
    <g transform="matrix(1.37445,0,0,1.37445,-507.715,-507.716)">
        <path d="M704.422,2070.03C546.805,1897.99 450.57,1668.81 450.57,1417.32C450.57,883.762 883.758,450.57 1417.32,450.57C1950.89,450.57 2384.07,883.762 2384.07,1417.32C2384.07,1668.81 2287.84,1897.99 2130.22,2070.03C2097.58,1756.47 1862.44,1502.73 1558.03,1442.03C1725.84,1383.73 1846.42,1224.12 1846.42,1036.57C1846.42,799.738 1654.15,607.469 1417.32,607.469C1180.49,607.469 988.223,799.738 988.223,1036.57C988.223,1224.12 1108.81,1383.73 1276.61,1442.03C972.207,1502.73 737.066,1756.47 704.422,2070.03ZM2071.97,2128.45C1899.71,2287.12 1669.75,2384.07 1417.32,2384.07C1164.89,2384.07 934.934,2287.12 762.68,2128.45C771.465,1774.65 1061.43,1490.13 1417.32,1490.13C1773.22,1490.13 2063.18,1774.65 2071.97,2128.45ZM1417.32,669.398C1619.97,669.398 1784.49,833.922 1784.49,1036.57C1784.49,1239.22 1619.97,1403.74 1417.32,1403.74C1214.68,1403.74 1050.15,1239.22 1050.15,1036.57C1050.15,833.922 1214.68,669.398 1417.32,669.398" style="fill:rgb(7,4,4);"/>
    </g>
</svg>
